<mxfile host="app.diagrams.net" modified="2021-01-05T22:15:54.978Z" agent="5.0 (Macintosh; Intel Mac OS X 10_15_7) AppleWebKit/605.1.15 (KHTML, like Gecko) Version/14.0.2 Safari/605.1.15" etag="ka8lToURDV9ejwEs1W82" version="14.1.2" type="github">
  <diagram id="Su2CQx85-kqoJEw9ctgg" name="Page-1">
    <mxGraphModel dx="440" dy="250" grid="1" gridSize="10" guides="1" tooltips="1" connect="1" arrows="1" fold="1" page="1" pageScale="1" pageWidth="1100" pageHeight="850" math="0" shadow="0">
      <root>
        <mxCell id="0" />
        <mxCell id="1" parent="0" />
        <mxCell id="Xc_Bv3yDCUbN4pcUxeXH-1" value="&lt;font style=&quot;font-size: 5px&quot;&gt;&lt;br&gt;&lt;br&gt;stabilná základňa&lt;br&gt;&lt;/font&gt;&lt;font style=&quot;font-size: 5px&quot;&gt;(káble sú tuhé)&lt;/font&gt;" style="ellipse;whiteSpace=wrap;html=1;aspect=fixed;" parent="1" vertex="1">
          <mxGeometry x="510" y="280" width="80" height="80" as="geometry" />
        </mxCell>
        <mxCell id="Xc_Bv3yDCUbN4pcUxeXH-2" value="" style="rounded=0;whiteSpace=wrap;html=1;" parent="1" vertex="1">
          <mxGeometry x="620" y="280" width="60" height="80" as="geometry" />
        </mxCell>
        <mxCell id="Xc_Bv3yDCUbN4pcUxeXH-3" value="" style="triangle;whiteSpace=wrap;html=1;rotation=90;" parent="1" vertex="1">
          <mxGeometry x="631.74" y="277.02" width="36.55" height="42.5" as="geometry" />
        </mxCell>
        <mxCell id="Xc_Bv3yDCUbN4pcUxeXH-4" value="" style="endArrow=none;dashed=1;html=1;exitX=1.022;exitY=0.5;exitDx=0;exitDy=0;exitPerimeter=0;" parent="1" source="Xc_Bv3yDCUbN4pcUxeXH-3" edge="1">
          <mxGeometry width="50" height="50" relative="1" as="geometry">
            <mxPoint x="580" y="350" as="sourcePoint" />
            <mxPoint x="690" y="317" as="targetPoint" />
          </mxGeometry>
        </mxCell>
        <mxCell id="Xc_Bv3yDCUbN4pcUxeXH-9" value="" style="endArrow=classic;startArrow=classic;html=1;endSize=3;startSize=3;" parent="1" edge="1">
          <mxGeometry width="50" height="50" relative="1" as="geometry">
            <mxPoint x="690" y="360" as="sourcePoint" />
            <mxPoint x="690" y="316" as="targetPoint" />
          </mxGeometry>
        </mxCell>
        <mxCell id="Xc_Bv3yDCUbN4pcUxeXH-10" value="&lt;font style=&quot;font-size: 5px&quot;&gt;B: 3 - 4 cm&lt;/font&gt;" style="edgeLabel;html=1;align=center;verticalAlign=middle;resizable=0;points=[];rotation=-90;labelBackgroundColor=none;" parent="Xc_Bv3yDCUbN4pcUxeXH-9" vertex="1" connectable="0">
          <mxGeometry x="0.1436" relative="1" as="geometry">
            <mxPoint x="-6" y="3" as="offset" />
          </mxGeometry>
        </mxCell>
        <mxCell id="Xc_Bv3yDCUbN4pcUxeXH-11" value="" style="endArrow=none;dashed=1;html=1;exitX=1.022;exitY=0.5;exitDx=0;exitDy=0;exitPerimeter=0;" parent="1" edge="1">
          <mxGeometry width="50" height="50" relative="1" as="geometry">
            <mxPoint x="610.005" y="280.2625000000001" as="sourcePoint" />
            <mxPoint x="620" y="280" as="targetPoint" />
          </mxGeometry>
        </mxCell>
        <mxCell id="Xc_Bv3yDCUbN4pcUxeXH-12" value="" style="endArrow=classic;startArrow=classic;html=1;endSize=3;startSize=3;" parent="1" edge="1">
          <mxGeometry width="50" height="50" relative="1" as="geometry">
            <mxPoint x="610" y="360" as="sourcePoint" />
            <mxPoint x="610" y="280" as="targetPoint" />
          </mxGeometry>
        </mxCell>
        <mxCell id="Xc_Bv3yDCUbN4pcUxeXH-13" value="&lt;font style=&quot;font-size: 5px&quot;&gt;A: 5 - 6 cm&lt;/font&gt;" style="edgeLabel;html=1;align=center;verticalAlign=middle;resizable=0;points=[];rotation=-90;labelBackgroundColor=none;" parent="Xc_Bv3yDCUbN4pcUxeXH-12" vertex="1" connectable="0">
          <mxGeometry x="0.1436" relative="1" as="geometry">
            <mxPoint x="-6" y="3" as="offset" />
          </mxGeometry>
        </mxCell>
        <mxCell id="Xc_Bv3yDCUbN4pcUxeXH-15" value="" style="endArrow=none;dashed=1;html=1;entryX=0.015;entryY=0.987;entryDx=0;entryDy=0;entryPerimeter=0;" parent="1" target="Xc_Bv3yDCUbN4pcUxeXH-3" edge="1">
          <mxGeometry width="50" height="50" relative="1" as="geometry">
            <mxPoint x="629" y="270" as="sourcePoint" />
            <mxPoint x="650" y="300" as="targetPoint" />
          </mxGeometry>
        </mxCell>
        <mxCell id="Xc_Bv3yDCUbN4pcUxeXH-16" value="" style="endArrow=none;dashed=1;html=1;entryX=0.015;entryY=0.987;entryDx=0;entryDy=0;entryPerimeter=0;" parent="1" edge="1">
          <mxGeometry width="50" height="50" relative="1" as="geometry">
            <mxPoint x="671.0000000000001" y="271" as="sourcePoint" />
            <mxPoint x="671.3175" y="281.5432499999999" as="targetPoint" />
          </mxGeometry>
        </mxCell>
        <mxCell id="Xc_Bv3yDCUbN4pcUxeXH-17" value="" style="endArrow=classic;startArrow=classic;html=1;endSize=3;startSize=3;" parent="1" edge="1">
          <mxGeometry width="50" height="50" relative="1" as="geometry">
            <mxPoint x="671" y="270" as="sourcePoint" />
            <mxPoint x="630" y="270" as="targetPoint" />
          </mxGeometry>
        </mxCell>
        <mxCell id="Xc_Bv3yDCUbN4pcUxeXH-18" value="&lt;font style=&quot;font-size: 5px&quot;&gt;C: 2 - 3 cm&lt;/font&gt;" style="edgeLabel;html=1;align=center;verticalAlign=middle;resizable=0;points=[];rotation=0;labelBackgroundColor=none;" parent="Xc_Bv3yDCUbN4pcUxeXH-17" vertex="1" connectable="0">
          <mxGeometry x="0.1436" relative="1" as="geometry">
            <mxPoint x="2.460000000000001" y="-10" as="offset" />
          </mxGeometry>
        </mxCell>
        <mxCell id="Xc_Bv3yDCUbN4pcUxeXH-19" value="Stojan pod kabel: &quot;Rolka&quot;" style="text;html=1;resizable=0;autosize=1;align=center;verticalAlign=middle;points=[];fillColor=none;strokeColor=none;rounded=0;labelBackgroundColor=none;" parent="1" vertex="1">
          <mxGeometry x="525" y="230" width="150" height="20" as="geometry" />
        </mxCell>
        <mxCell id="Xc_Bv3yDCUbN4pcUxeXH-20" value="" style="endArrow=classic;startArrow=classic;html=1;endSize=3;startSize=3;entryX=0;entryY=0.5;entryDx=0;entryDy=0;exitX=1;exitY=0.5;exitDx=0;exitDy=0;" parent="1" source="Xc_Bv3yDCUbN4pcUxeXH-1" target="Xc_Bv3yDCUbN4pcUxeXH-1" edge="1">
          <mxGeometry width="50" height="50" relative="1" as="geometry">
            <mxPoint x="570.5" y="319.88" as="sourcePoint" />
            <mxPoint x="529.5" y="319.88" as="targetPoint" />
          </mxGeometry>
        </mxCell>
        <mxCell id="Xc_Bv3yDCUbN4pcUxeXH-21" value="&lt;font style=&quot;font-size: 5px&quot;&gt;D: 5 - 6 cm&lt;/font&gt;" style="edgeLabel;html=1;align=center;verticalAlign=middle;resizable=0;points=[];rotation=0;labelBackgroundColor=none;" parent="Xc_Bv3yDCUbN4pcUxeXH-20" vertex="1" connectable="0">
          <mxGeometry x="0.1436" relative="1" as="geometry">
            <mxPoint x="2.460000000000001" y="-10" as="offset" />
          </mxGeometry>
        </mxCell>
        <mxCell id="HOKes4aEupT3y53DSmjN-1" value="" style="shape=delay;whiteSpace=wrap;html=1;rotation=90;" vertex="1" parent="1">
          <mxGeometry x="798" y="275" width="40" height="50" as="geometry" />
        </mxCell>
        <mxCell id="HOKes4aEupT3y53DSmjN-2" value="" style="shape=delay;whiteSpace=wrap;html=1;rotation=-90;" vertex="1" parent="1">
          <mxGeometry x="798.24" y="304.28" width="40" height="70.48" as="geometry" />
        </mxCell>
        <mxCell id="HOKes4aEupT3y53DSmjN-3" value="" style="shape=delay;whiteSpace=wrap;html=1;rotation=90;" vertex="1" parent="1">
          <mxGeometry x="801.54" y="279.15" width="33.23" height="34.94" as="geometry" />
        </mxCell>
        <mxCell id="HOKes4aEupT3y53DSmjN-4" value="" style="shape=delay;whiteSpace=wrap;html=1;rotation=-90;" vertex="1" parent="1">
          <mxGeometry x="801.52" y="313.73" width="33.71" height="57.85" as="geometry" />
        </mxCell>
        <mxCell id="HOKes4aEupT3y53DSmjN-5" value="" style="endArrow=classic;startArrow=classic;html=1;entryX=0;entryY=1;entryDx=0;entryDy=0;exitX=0;exitY=0;exitDx=0;exitDy=0;endSize=4;startSize=4;" edge="1" parent="1" source="HOKes4aEupT3y53DSmjN-4" target="HOKes4aEupT3y53DSmjN-4">
          <mxGeometry width="50" height="50" relative="1" as="geometry">
            <mxPoint x="743" y="340" as="sourcePoint" />
            <mxPoint x="793" y="290" as="targetPoint" />
          </mxGeometry>
        </mxCell>
        <mxCell id="HOKes4aEupT3y53DSmjN-6" value="&lt;font style=&quot;font-size: 5px&quot;&gt;A: 4 cm&lt;/font&gt;" style="edgeLabel;html=1;align=center;verticalAlign=middle;resizable=0;points=[];" vertex="1" connectable="0" parent="HOKes4aEupT3y53DSmjN-5">
          <mxGeometry x="-0.0665" y="1" relative="1" as="geometry">
            <mxPoint x="1.3" y="-8.51" as="offset" />
          </mxGeometry>
        </mxCell>
        <mxCell id="HOKes4aEupT3y53DSmjN-7" value="" style="endArrow=classic;startArrow=classic;html=1;exitX=0;exitY=1;exitDx=0;exitDy=0;endSize=4;startSize=4;entryX=0;entryY=0;entryDx=0;entryDy=0;" edge="1" parent="1" source="HOKes4aEupT3y53DSmjN-3" target="HOKes4aEupT3y53DSmjN-3">
          <mxGeometry width="50" height="50" relative="1" as="geometry">
            <mxPoint x="801.54" y="275" as="sourcePoint" />
            <mxPoint x="833" y="270" as="targetPoint" />
          </mxGeometry>
        </mxCell>
        <mxCell id="HOKes4aEupT3y53DSmjN-8" value="&lt;font style=&quot;font-size: 5px&quot;&gt;C: 2 cm&lt;/font&gt;" style="edgeLabel;html=1;align=center;verticalAlign=middle;resizable=0;points=[];" vertex="1" connectable="0" parent="HOKes4aEupT3y53DSmjN-7">
          <mxGeometry x="-0.0665" y="1" relative="1" as="geometry">
            <mxPoint x="1.3" y="-8.51" as="offset" />
          </mxGeometry>
        </mxCell>
        <mxCell id="HOKes4aEupT3y53DSmjN-9" value="" style="endArrow=none;dashed=1;html=1;exitX=1.022;exitY=0.5;exitDx=0;exitDy=0;exitPerimeter=0;" edge="1" parent="1">
          <mxGeometry width="50" height="50" relative="1" as="geometry">
            <mxPoint x="772.9950000000001" y="313.3490999999998" as="sourcePoint" />
            <mxPoint x="812.98" y="313" as="targetPoint" />
          </mxGeometry>
        </mxCell>
        <mxCell id="HOKes4aEupT3y53DSmjN-10" value="" style="endArrow=classic;startArrow=classic;html=1;endSize=3;startSize=3;" edge="1" parent="1">
          <mxGeometry width="50" height="50" relative="1" as="geometry">
            <mxPoint x="773" y="358.09" as="sourcePoint" />
            <mxPoint x="773" y="314.09" as="targetPoint" />
          </mxGeometry>
        </mxCell>
        <mxCell id="HOKes4aEupT3y53DSmjN-11" value="&lt;font style=&quot;font-size: 5px&quot;&gt;B: 4 cm&lt;/font&gt;" style="edgeLabel;html=1;align=center;verticalAlign=middle;resizable=0;points=[];rotation=-90;labelBackgroundColor=none;" vertex="1" connectable="0" parent="HOKes4aEupT3y53DSmjN-10">
          <mxGeometry x="0.1436" relative="1" as="geometry">
            <mxPoint x="-6" y="3" as="offset" />
          </mxGeometry>
        </mxCell>
        <mxCell id="HOKes4aEupT3y53DSmjN-15" value="" style="endArrow=classic;startArrow=classic;html=1;endSize=3;startSize=3;" edge="1" parent="1">
          <mxGeometry width="50" height="50" relative="1" as="geometry">
            <mxPoint x="864" y="326" as="sourcePoint" />
            <mxPoint x="863" y="279.9999999999999" as="targetPoint" />
          </mxGeometry>
        </mxCell>
        <mxCell id="HOKes4aEupT3y53DSmjN-16" value="&lt;font style=&quot;font-size: 5px&quot;&gt;D: 3 cm&lt;/font&gt;" style="edgeLabel;html=1;align=center;verticalAlign=middle;resizable=0;points=[];rotation=-90;labelBackgroundColor=none;" vertex="1" connectable="0" parent="HOKes4aEupT3y53DSmjN-15">
          <mxGeometry x="0.1436" relative="1" as="geometry">
            <mxPoint x="-6" y="3" as="offset" />
          </mxGeometry>
        </mxCell>
        <mxCell id="HOKes4aEupT3y53DSmjN-17" value="" style="endArrow=none;dashed=1;html=1;exitX=1.022;exitY=0.5;exitDx=0;exitDy=0;exitPerimeter=0;" edge="1" parent="1">
          <mxGeometry width="50" height="50" relative="1" as="geometry">
            <mxPoint x="821.995" y="326.3490999999998" as="sourcePoint" />
            <mxPoint x="861.98" y="326.00000000000006" as="targetPoint" />
          </mxGeometry>
        </mxCell>
        <mxCell id="HOKes4aEupT3y53DSmjN-18" value="Stojan pod kabel: &quot;Účko&quot;" style="text;html=1;resizable=0;autosize=1;align=center;verticalAlign=middle;points=[];fillColor=none;strokeColor=none;rounded=0;labelBackgroundColor=none;" vertex="1" parent="1">
          <mxGeometry x="733" y="230" width="150" height="20" as="geometry" />
        </mxCell>
        <mxCell id="HOKes4aEupT3y53DSmjN-19" value="" style="endArrow=none;dashed=1;html=1;exitX=1.022;exitY=0.5;exitDx=0;exitDy=0;exitPerimeter=0;" edge="1" parent="1">
          <mxGeometry width="50" height="50" relative="1" as="geometry">
            <mxPoint x="843.0149999999999" y="279.9490999999998" as="sourcePoint" />
            <mxPoint x="890" y="280" as="targetPoint" />
          </mxGeometry>
        </mxCell>
        <mxCell id="HOKes4aEupT3y53DSmjN-20" value="" style="endArrow=none;dashed=1;html=1;exitX=1.022;exitY=0.5;exitDx=0;exitDy=0;exitPerimeter=0;" edge="1" parent="1">
          <mxGeometry width="50" height="50" relative="1" as="geometry">
            <mxPoint x="853.0149999999999" y="359.5990999999998" as="sourcePoint" />
            <mxPoint x="890" y="360" as="targetPoint" />
          </mxGeometry>
        </mxCell>
        <mxCell id="HOKes4aEupT3y53DSmjN-21" value="" style="endArrow=classic;startArrow=classic;html=1;endSize=3;startSize=3;" edge="1" parent="1">
          <mxGeometry width="50" height="50" relative="1" as="geometry">
            <mxPoint x="890" y="360" as="sourcePoint" />
            <mxPoint x="890" y="280" as="targetPoint" />
          </mxGeometry>
        </mxCell>
        <mxCell id="HOKes4aEupT3y53DSmjN-22" value="&lt;font style=&quot;font-size: 5px&quot;&gt;E: 6-7 cm&lt;br&gt;MAX vyska&lt;br&gt;&lt;/font&gt;" style="edgeLabel;html=1;align=center;verticalAlign=middle;resizable=0;points=[];rotation=-90;labelBackgroundColor=none;" vertex="1" connectable="0" parent="HOKes4aEupT3y53DSmjN-21">
          <mxGeometry x="0.1436" relative="1" as="geometry">
            <mxPoint y="5.12" as="offset" />
          </mxGeometry>
        </mxCell>
        <mxCell id="HOKes4aEupT3y53DSmjN-23" value="" style="endArrow=none;dashed=1;html=1;entryX=0;entryY=1;entryDx=0;entryDy=0;" edge="1" parent="1" target="Xc_Bv3yDCUbN4pcUxeXH-2">
          <mxGeometry width="50" height="50" relative="1" as="geometry">
            <mxPoint x="610" y="360" as="sourcePoint" />
            <mxPoint x="630" y="290" as="targetPoint" />
          </mxGeometry>
        </mxCell>
      </root>
    </mxGraphModel>
  </diagram>
</mxfile>
